<mxfile host="app.diagrams.net" modified="2022-02-08T07:06:57.823Z" agent="5.0 (X11; Linux x86_64) AppleWebKit/537.36 (KHTML, like Gecko) Chrome/98.0.4758.80 Safari/537.36" etag="zoYTU0HeExr6_0xYUxl8" version="16.5.3" type="github">
  <diagram id="Yi_pjQfjcz1Kh0DtfVMH" name="Page-1">
    <mxGraphModel dx="2480" dy="1162" grid="1" gridSize="10" guides="1" tooltips="1" connect="1" arrows="1" fold="1" page="1" pageScale="1" pageWidth="827" pageHeight="1169" math="0" shadow="0">
      <root>
        <mxCell id="0" />
        <mxCell id="1" parent="0" />
        <mxCell id="QlWC5XBb-nRQeS2KVwKl-1" value="&lt;font style=&quot;font-size: 27px&quot;&gt;&lt;b&gt;STM32F4&lt;br&gt;32-bit&lt;/b&gt;&lt;/font&gt;" style="whiteSpace=wrap;html=1;aspect=fixed;shadow=1;strokeColor=default;strokeWidth=1;fillColor=#cce5ff;dashed=1;" vertex="1" parent="1">
          <mxGeometry x="163.37" y="496.49" width="213.25" height="213.25" as="geometry" />
        </mxCell>
        <mxCell id="QlWC5XBb-nRQeS2KVwKl-35" style="edgeStyle=orthogonalEdgeStyle;rounded=0;orthogonalLoop=1;jettySize=auto;html=1;exitX=1;exitY=0.5;exitDx=0;exitDy=0;entryX=0;entryY=0.5;entryDx=0;entryDy=0;fontSize=10;shadow=1;" edge="1" parent="1" target="QlWC5XBb-nRQeS2KVwKl-12">
          <mxGeometry relative="1" as="geometry">
            <mxPoint x="670" y="457.1199999999999" as="sourcePoint" />
          </mxGeometry>
        </mxCell>
        <mxCell id="QlWC5XBb-nRQeS2KVwKl-106" style="edgeStyle=orthogonalEdgeStyle;rounded=0;orthogonalLoop=1;jettySize=auto;html=1;shadow=1;fontSize=12;elbow=vertical;" edge="1" parent="1" source="QlWC5XBb-nRQeS2KVwKl-6" target="QlWC5XBb-nRQeS2KVwKl-1">
          <mxGeometry relative="1" as="geometry" />
        </mxCell>
        <mxCell id="QlWC5XBb-nRQeS2KVwKl-6" value="&lt;font style=&quot;font-size: 10px&quot;&gt;&lt;b&gt;BRK (2x)&lt;br&gt;12V (D)&lt;/b&gt;&lt;/font&gt;" style="rhombus;whiteSpace=wrap;html=1;shadow=1;rounded=1;fillColor=#f9f7ed;strokeColor=#36393d;" vertex="1" parent="1">
          <mxGeometry x="600" y="430.62" width="70" height="73" as="geometry" />
        </mxCell>
        <mxCell id="QlWC5XBb-nRQeS2KVwKl-12" value="" style="rounded=0;whiteSpace=wrap;html=1;shadow=1;" vertex="1" parent="1">
          <mxGeometry x="840" y="529.62" width="150" height="169" as="geometry" />
        </mxCell>
        <mxCell id="QlWC5XBb-nRQeS2KVwKl-2" value="Motor&lt;br&gt;Controller" style="rounded=1;whiteSpace=wrap;html=1;shadow=1;" vertex="1" parent="1">
          <mxGeometry x="865" y="558.62" width="100" height="50" as="geometry" />
        </mxCell>
        <mxCell id="QlWC5XBb-nRQeS2KVwKl-3" value="Motor&lt;br&gt;Controller" style="rounded=1;whiteSpace=wrap;html=1;shadow=1;" vertex="1" parent="1">
          <mxGeometry x="865" y="625.62" width="100" height="50" as="geometry" />
        </mxCell>
        <mxCell id="QlWC5XBb-nRQeS2KVwKl-38" style="edgeStyle=orthogonalEdgeStyle;rounded=0;orthogonalLoop=1;jettySize=auto;html=1;fontSize=10;shadow=1;" edge="1" parent="1" source="QlWC5XBb-nRQeS2KVwKl-22" target="QlWC5XBb-nRQeS2KVwKl-37">
          <mxGeometry relative="1" as="geometry" />
        </mxCell>
        <mxCell id="QlWC5XBb-nRQeS2KVwKl-22" value="Brake&lt;br&gt;Sensor" style="rounded=1;whiteSpace=wrap;html=1;shadow=1;" vertex="1" parent="1">
          <mxGeometry x="-255" y="495.75" width="80" height="40" as="geometry" />
        </mxCell>
        <mxCell id="QlWC5XBb-nRQeS2KVwKl-41" style="edgeStyle=orthogonalEdgeStyle;rounded=0;orthogonalLoop=1;jettySize=auto;html=1;entryX=0;entryY=0.5;entryDx=0;entryDy=0;fontSize=10;shadow=1;" edge="1" parent="1" source="QlWC5XBb-nRQeS2KVwKl-23" target="QlWC5XBb-nRQeS2KVwKl-39">
          <mxGeometry relative="1" as="geometry" />
        </mxCell>
        <mxCell id="QlWC5XBb-nRQeS2KVwKl-42" style="edgeStyle=orthogonalEdgeStyle;rounded=0;orthogonalLoop=1;jettySize=auto;html=1;exitX=1;exitY=0.5;exitDx=0;exitDy=0;entryX=0;entryY=0.5;entryDx=0;entryDy=0;fontSize=10;shadow=1;" edge="1" parent="1" source="QlWC5XBb-nRQeS2KVwKl-23" target="QlWC5XBb-nRQeS2KVwKl-40">
          <mxGeometry relative="1" as="geometry" />
        </mxCell>
        <mxCell id="QlWC5XBb-nRQeS2KVwKl-23" value="IMU&lt;br&gt;Sensor" style="rounded=1;whiteSpace=wrap;html=1;shadow=1;" vertex="1" parent="1">
          <mxGeometry x="-255" y="620.75" width="80" height="40" as="geometry" />
        </mxCell>
        <mxCell id="QlWC5XBb-nRQeS2KVwKl-33" style="edgeStyle=orthogonalEdgeStyle;rounded=0;orthogonalLoop=1;jettySize=auto;html=1;exitX=1;exitY=0.5;exitDx=0;exitDy=0;entryX=0;entryY=0.5;entryDx=0;entryDy=0;fontSize=10;shadow=1;" edge="1" parent="1" source="QlWC5XBb-nRQeS2KVwKl-30" target="QlWC5XBb-nRQeS2KVwKl-12">
          <mxGeometry relative="1" as="geometry" />
        </mxCell>
        <mxCell id="QlWC5XBb-nRQeS2KVwKl-107" style="edgeStyle=orthogonalEdgeStyle;rounded=0;orthogonalLoop=1;jettySize=auto;html=1;entryX=1;entryY=0.5;entryDx=0;entryDy=0;shadow=1;fontSize=12;elbow=vertical;" edge="1" parent="1" source="QlWC5XBb-nRQeS2KVwKl-30" target="QlWC5XBb-nRQeS2KVwKl-1">
          <mxGeometry relative="1" as="geometry" />
        </mxCell>
        <mxCell id="QlWC5XBb-nRQeS2KVwKl-30" value="&lt;font style=&quot;font-size: 10px&quot;&gt;&lt;b&gt;FWD (2x)&lt;br&gt;12V (D)&lt;/b&gt;&lt;/font&gt;" style="rhombus;whiteSpace=wrap;html=1;shadow=1;rounded=1;fillColor=#f9f7ed;strokeColor=#36393d;" vertex="1" parent="1">
          <mxGeometry x="600" y="520.62" width="70" height="73" as="geometry" />
        </mxCell>
        <mxCell id="QlWC5XBb-nRQeS2KVwKl-34" style="edgeStyle=orthogonalEdgeStyle;rounded=0;orthogonalLoop=1;jettySize=auto;html=1;exitX=1;exitY=0.5;exitDx=0;exitDy=0;entryX=0;entryY=0.5;entryDx=0;entryDy=0;fontSize=10;shadow=1;" edge="1" parent="1" source="QlWC5XBb-nRQeS2KVwKl-31" target="QlWC5XBb-nRQeS2KVwKl-12">
          <mxGeometry relative="1" as="geometry" />
        </mxCell>
        <mxCell id="QlWC5XBb-nRQeS2KVwKl-108" style="edgeStyle=orthogonalEdgeStyle;rounded=0;orthogonalLoop=1;jettySize=auto;html=1;entryX=1;entryY=0.5;entryDx=0;entryDy=0;shadow=1;fontSize=12;elbow=vertical;" edge="1" parent="1" source="QlWC5XBb-nRQeS2KVwKl-31" target="QlWC5XBb-nRQeS2KVwKl-1">
          <mxGeometry relative="1" as="geometry" />
        </mxCell>
        <mxCell id="QlWC5XBb-nRQeS2KVwKl-31" value="&lt;font style=&quot;font-size: 10px&quot;&gt;&lt;b&gt;REV (2x)&lt;br&gt;12V (D)&lt;/b&gt;&lt;/font&gt;" style="rhombus;whiteSpace=wrap;html=1;shadow=1;rounded=1;fillColor=#f9f7ed;strokeColor=#36393d;" vertex="1" parent="1">
          <mxGeometry x="600" y="619.62" width="70" height="73" as="geometry" />
        </mxCell>
        <mxCell id="QlWC5XBb-nRQeS2KVwKl-36" style="edgeStyle=orthogonalEdgeStyle;rounded=0;orthogonalLoop=1;jettySize=auto;html=1;exitX=1;exitY=0.5;exitDx=0;exitDy=0;entryX=0;entryY=0.5;entryDx=0;entryDy=0;fontSize=10;shadow=1;" edge="1" parent="1" source="QlWC5XBb-nRQeS2KVwKl-32" target="QlWC5XBb-nRQeS2KVwKl-12">
          <mxGeometry relative="1" as="geometry" />
        </mxCell>
        <mxCell id="QlWC5XBb-nRQeS2KVwKl-109" style="edgeStyle=orthogonalEdgeStyle;rounded=0;orthogonalLoop=1;jettySize=auto;html=1;entryX=1;entryY=0.5;entryDx=0;entryDy=0;shadow=1;fontSize=12;elbow=vertical;" edge="1" parent="1" source="QlWC5XBb-nRQeS2KVwKl-32" target="QlWC5XBb-nRQeS2KVwKl-1">
          <mxGeometry relative="1" as="geometry" />
        </mxCell>
        <mxCell id="QlWC5XBb-nRQeS2KVwKl-32" value="&lt;font style=&quot;font-size: 10px&quot;&gt;&lt;b&gt;THR (2x)&lt;br&gt;12V (DP)&lt;/b&gt;&lt;/font&gt;" style="rhombus;whiteSpace=wrap;html=1;shadow=1;rounded=1;fillColor=#f9f7ed;strokeColor=#36393d;" vertex="1" parent="1">
          <mxGeometry x="600" y="719.62" width="70" height="73" as="geometry" />
        </mxCell>
        <mxCell id="QlWC5XBb-nRQeS2KVwKl-115" style="edgeStyle=orthogonalEdgeStyle;rounded=0;orthogonalLoop=1;jettySize=auto;html=1;entryX=0;entryY=0.5;entryDx=0;entryDy=0;shadow=1;fontSize=12;elbow=vertical;" edge="1" parent="1" source="QlWC5XBb-nRQeS2KVwKl-37" target="QlWC5XBb-nRQeS2KVwKl-1">
          <mxGeometry relative="1" as="geometry" />
        </mxCell>
        <mxCell id="QlWC5XBb-nRQeS2KVwKl-37" value="&lt;font style=&quot;font-size: 10px&quot;&gt;&lt;b&gt;BRK (1x)&lt;br&gt;5V (A)&lt;br&gt;&lt;/b&gt;&lt;/font&gt;" style="rhombus;whiteSpace=wrap;html=1;shadow=1;rounded=1;fillColor=#f9f7ed;strokeColor=#36393d;" vertex="1" parent="1">
          <mxGeometry x="-98" y="479.25" width="70" height="73" as="geometry" />
        </mxCell>
        <mxCell id="QlWC5XBb-nRQeS2KVwKl-117" style="edgeStyle=orthogonalEdgeStyle;rounded=0;orthogonalLoop=1;jettySize=auto;html=1;shadow=1;fontSize=12;elbow=vertical;" edge="1" parent="1" source="QlWC5XBb-nRQeS2KVwKl-39" target="QlWC5XBb-nRQeS2KVwKl-1">
          <mxGeometry relative="1" as="geometry" />
        </mxCell>
        <mxCell id="QlWC5XBb-nRQeS2KVwKl-39" value="&lt;font style=&quot;font-size: 10px&quot;&gt;&lt;b&gt;ACC&lt;br&gt;5V (I2C)&lt;br&gt;&lt;/b&gt;&lt;/font&gt;" style="rhombus;whiteSpace=wrap;html=1;shadow=1;rounded=1;fillColor=#f9f7ed;strokeColor=#36393d;" vertex="1" parent="1">
          <mxGeometry x="-98" y="566.75" width="70" height="73" as="geometry" />
        </mxCell>
        <mxCell id="QlWC5XBb-nRQeS2KVwKl-118" style="edgeStyle=orthogonalEdgeStyle;rounded=0;orthogonalLoop=1;jettySize=auto;html=1;entryX=0;entryY=0.5;entryDx=0;entryDy=0;shadow=1;fontSize=12;elbow=vertical;" edge="1" parent="1" source="QlWC5XBb-nRQeS2KVwKl-40" target="QlWC5XBb-nRQeS2KVwKl-1">
          <mxGeometry relative="1" as="geometry" />
        </mxCell>
        <mxCell id="QlWC5XBb-nRQeS2KVwKl-40" value="&lt;font style=&quot;font-size: 10px&quot;&gt;&lt;b&gt;GYR&lt;br&gt;5V (I2C)&lt;br&gt;&lt;/b&gt;&lt;/font&gt;" style="rhombus;whiteSpace=wrap;html=1;shadow=1;rounded=1;fillColor=#f9f7ed;strokeColor=#36393d;" vertex="1" parent="1">
          <mxGeometry x="-98" y="642.75" width="70" height="73" as="geometry" />
        </mxCell>
        <mxCell id="QlWC5XBb-nRQeS2KVwKl-45" style="edgeStyle=orthogonalEdgeStyle;rounded=0;orthogonalLoop=1;jettySize=auto;html=1;entryX=0;entryY=0.5;entryDx=0;entryDy=0;fontSize=10;shadow=1;" edge="1" parent="1" source="QlWC5XBb-nRQeS2KVwKl-43" target="QlWC5XBb-nRQeS2KVwKl-44">
          <mxGeometry relative="1" as="geometry" />
        </mxCell>
        <mxCell id="QlWC5XBb-nRQeS2KVwKl-43" value="Load&lt;br&gt;Sensor" style="rounded=1;whiteSpace=wrap;html=1;shadow=1;" vertex="1" parent="1">
          <mxGeometry x="-255" y="752.25" width="80" height="40" as="geometry" />
        </mxCell>
        <mxCell id="QlWC5XBb-nRQeS2KVwKl-119" style="edgeStyle=orthogonalEdgeStyle;rounded=0;orthogonalLoop=1;jettySize=auto;html=1;exitX=1;exitY=0.5;exitDx=0;exitDy=0;entryX=0;entryY=0.5;entryDx=0;entryDy=0;shadow=1;fontSize=12;elbow=vertical;" edge="1" parent="1" source="QlWC5XBb-nRQeS2KVwKl-44" target="QlWC5XBb-nRQeS2KVwKl-1">
          <mxGeometry relative="1" as="geometry" />
        </mxCell>
        <mxCell id="QlWC5XBb-nRQeS2KVwKl-44" value="&lt;font style=&quot;font-size: 10px&quot;&gt;&lt;b&gt;LOAD&lt;br&gt;5V (A)&lt;br&gt;&lt;/b&gt;&lt;/font&gt;" style="rhombus;whiteSpace=wrap;html=1;shadow=1;rounded=1;fillColor=#f9f7ed;strokeColor=#36393d;" vertex="1" parent="1">
          <mxGeometry x="-98" y="735.75" width="70" height="73" as="geometry" />
        </mxCell>
        <mxCell id="QlWC5XBb-nRQeS2KVwKl-48" style="edgeStyle=orthogonalEdgeStyle;rounded=0;orthogonalLoop=1;jettySize=auto;html=1;fontSize=10;shadow=1;" edge="1" parent="1" source="QlWC5XBb-nRQeS2KVwKl-46" target="QlWC5XBb-nRQeS2KVwKl-47">
          <mxGeometry relative="1" as="geometry" />
        </mxCell>
        <mxCell id="QlWC5XBb-nRQeS2KVwKl-46" value="Throttle&lt;br&gt;Sensor" style="rounded=1;whiteSpace=wrap;html=1;shadow=1;" vertex="1" parent="1">
          <mxGeometry x="-255" y="391.75" width="80" height="40" as="geometry" />
        </mxCell>
        <mxCell id="QlWC5XBb-nRQeS2KVwKl-114" style="edgeStyle=orthogonalEdgeStyle;rounded=0;orthogonalLoop=1;jettySize=auto;html=1;entryX=0;entryY=0.5;entryDx=0;entryDy=0;shadow=1;fontSize=12;elbow=vertical;" edge="1" parent="1" source="QlWC5XBb-nRQeS2KVwKl-47" target="QlWC5XBb-nRQeS2KVwKl-1">
          <mxGeometry relative="1" as="geometry" />
        </mxCell>
        <mxCell id="QlWC5XBb-nRQeS2KVwKl-47" value="&lt;font style=&quot;font-size: 10px&quot;&gt;&lt;b&gt;THR (1x)&lt;br&gt;5V (A)&lt;br&gt;&lt;/b&gt;&lt;/font&gt;" style="rhombus;whiteSpace=wrap;html=1;shadow=1;rounded=1;fillColor=#f9f7ed;strokeColor=#36393d;" vertex="1" parent="1">
          <mxGeometry x="-98" y="375.25" width="70" height="73" as="geometry" />
        </mxCell>
        <mxCell id="QlWC5XBb-nRQeS2KVwKl-49" value="Headlight" style="shape=process;whiteSpace=wrap;html=1;backgroundOutline=1;rounded=1;fontSize=10;shadow=1;" vertex="1" parent="1">
          <mxGeometry x="225" y="120" width="90" height="40" as="geometry" />
        </mxCell>
        <mxCell id="QlWC5XBb-nRQeS2KVwKl-68" style="edgeStyle=orthogonalEdgeStyle;rounded=0;orthogonalLoop=1;jettySize=auto;html=1;exitX=0.5;exitY=0;exitDx=0;exitDy=0;shadow=1;fontSize=10;" edge="1" parent="1" source="QlWC5XBb-nRQeS2KVwKl-53" target="QlWC5XBb-nRQeS2KVwKl-62">
          <mxGeometry relative="1" as="geometry" />
        </mxCell>
        <mxCell id="QlWC5XBb-nRQeS2KVwKl-102" style="edgeStyle=elbowEdgeStyle;rounded=0;orthogonalLoop=1;jettySize=auto;elbow=vertical;html=1;exitX=0.5;exitY=1;exitDx=0;exitDy=0;entryX=0.5;entryY=0;entryDx=0;entryDy=0;shadow=1;fontSize=12;" edge="1" parent="1" source="QlWC5XBb-nRQeS2KVwKl-53" target="QlWC5XBb-nRQeS2KVwKl-1">
          <mxGeometry relative="1" as="geometry" />
        </mxCell>
        <mxCell id="QlWC5XBb-nRQeS2KVwKl-53" value="&lt;font style=&quot;font-size: 10px&quot;&gt;&lt;b&gt;ON/OFF&lt;br&gt;5V (D)&lt;/b&gt;&lt;/font&gt;" style="rhombus;whiteSpace=wrap;html=1;shadow=1;rounded=1;fillColor=#f9f7ed;strokeColor=#36393d;" vertex="1" parent="1">
          <mxGeometry x="235" y="270" width="70" height="73" as="geometry" />
        </mxCell>
        <mxCell id="QlWC5XBb-nRQeS2KVwKl-54" value="Brake&lt;br&gt;Indicators" style="shape=process;whiteSpace=wrap;html=1;backgroundOutline=1;rounded=1;fontSize=10;shadow=1;" vertex="1" parent="1">
          <mxGeometry x="90" y="120" width="90" height="40" as="geometry" />
        </mxCell>
        <mxCell id="QlWC5XBb-nRQeS2KVwKl-55" value="Reverse&lt;br&gt;Indicators" style="shape=process;whiteSpace=wrap;html=1;backgroundOutline=1;rounded=1;fontSize=10;shadow=1;" vertex="1" parent="1">
          <mxGeometry x="360" y="120" width="90" height="40" as="geometry" />
        </mxCell>
        <mxCell id="QlWC5XBb-nRQeS2KVwKl-65" style="edgeStyle=orthogonalEdgeStyle;rounded=0;orthogonalLoop=1;jettySize=auto;html=1;exitX=0.5;exitY=0;exitDx=0;exitDy=0;entryX=0.5;entryY=1;entryDx=0;entryDy=0;shadow=1;fontSize=10;" edge="1" parent="1" source="QlWC5XBb-nRQeS2KVwKl-56" target="QlWC5XBb-nRQeS2KVwKl-61">
          <mxGeometry relative="1" as="geometry" />
        </mxCell>
        <mxCell id="QlWC5XBb-nRQeS2KVwKl-101" style="edgeStyle=elbowEdgeStyle;rounded=0;orthogonalLoop=1;jettySize=auto;elbow=vertical;html=1;exitX=0.5;exitY=1;exitDx=0;exitDy=0;entryX=0.5;entryY=0;entryDx=0;entryDy=0;shadow=1;fontSize=12;" edge="1" parent="1" source="QlWC5XBb-nRQeS2KVwKl-56" target="QlWC5XBb-nRQeS2KVwKl-1">
          <mxGeometry relative="1" as="geometry" />
        </mxCell>
        <mxCell id="QlWC5XBb-nRQeS2KVwKl-56" value="&lt;font style=&quot;font-size: 10px&quot;&gt;&lt;b&gt;ON/OFF&lt;br&gt;5V (D)&lt;/b&gt;&lt;/font&gt;" style="rhombus;whiteSpace=wrap;html=1;shadow=1;rounded=1;fillColor=#f9f7ed;strokeColor=#36393d;" vertex="1" parent="1">
          <mxGeometry x="100" y="270" width="70" height="73" as="geometry" />
        </mxCell>
        <mxCell id="QlWC5XBb-nRQeS2KVwKl-67" style="edgeStyle=orthogonalEdgeStyle;rounded=0;orthogonalLoop=1;jettySize=auto;html=1;exitX=0.5;exitY=0;exitDx=0;exitDy=0;entryX=0.5;entryY=1;entryDx=0;entryDy=0;shadow=1;fontSize=10;" edge="1" parent="1" source="QlWC5XBb-nRQeS2KVwKl-57" target="QlWC5XBb-nRQeS2KVwKl-63">
          <mxGeometry relative="1" as="geometry" />
        </mxCell>
        <mxCell id="QlWC5XBb-nRQeS2KVwKl-103" style="edgeStyle=elbowEdgeStyle;rounded=0;orthogonalLoop=1;jettySize=auto;elbow=vertical;html=1;exitX=0.5;exitY=1;exitDx=0;exitDy=0;entryX=0.5;entryY=0;entryDx=0;entryDy=0;shadow=1;fontSize=12;" edge="1" parent="1" source="QlWC5XBb-nRQeS2KVwKl-57" target="QlWC5XBb-nRQeS2KVwKl-1">
          <mxGeometry relative="1" as="geometry" />
        </mxCell>
        <mxCell id="QlWC5XBb-nRQeS2KVwKl-57" value="&lt;font style=&quot;font-size: 10px&quot;&gt;&lt;b&gt;ON/OFF&lt;br&gt;5V (D)&lt;/b&gt;&lt;/font&gt;" style="rhombus;whiteSpace=wrap;html=1;shadow=1;rounded=1;fillColor=#f9f7ed;strokeColor=#36393d;" vertex="1" parent="1">
          <mxGeometry x="370" y="270" width="70" height="73" as="geometry" />
        </mxCell>
        <mxCell id="QlWC5XBb-nRQeS2KVwKl-69" style="edgeStyle=orthogonalEdgeStyle;rounded=0;orthogonalLoop=1;jettySize=auto;html=1;exitX=0.5;exitY=0;exitDx=0;exitDy=0;entryX=0.5;entryY=1;entryDx=0;entryDy=0;shadow=1;fontSize=10;" edge="1" parent="1" source="QlWC5XBb-nRQeS2KVwKl-61" target="QlWC5XBb-nRQeS2KVwKl-54">
          <mxGeometry relative="1" as="geometry" />
        </mxCell>
        <mxCell id="QlWC5XBb-nRQeS2KVwKl-61" value="R1" style="shape=offPageConnector;whiteSpace=wrap;html=1;rounded=1;shadow=1;fontSize=10;size=0.4;" vertex="1" parent="1">
          <mxGeometry x="110" y="189" width="50" height="50" as="geometry" />
        </mxCell>
        <mxCell id="QlWC5XBb-nRQeS2KVwKl-70" value="" style="edgeStyle=orthogonalEdgeStyle;rounded=0;orthogonalLoop=1;jettySize=auto;html=1;shadow=1;fontSize=10;" edge="1" parent="1" source="QlWC5XBb-nRQeS2KVwKl-62" target="QlWC5XBb-nRQeS2KVwKl-49">
          <mxGeometry relative="1" as="geometry" />
        </mxCell>
        <mxCell id="QlWC5XBb-nRQeS2KVwKl-62" value="R2" style="shape=offPageConnector;whiteSpace=wrap;html=1;rounded=1;shadow=1;fontSize=10;size=0.4;" vertex="1" parent="1">
          <mxGeometry x="245" y="189" width="50" height="50" as="geometry" />
        </mxCell>
        <mxCell id="QlWC5XBb-nRQeS2KVwKl-71" style="edgeStyle=orthogonalEdgeStyle;rounded=0;orthogonalLoop=1;jettySize=auto;html=1;exitX=0.5;exitY=0;exitDx=0;exitDy=0;entryX=0.5;entryY=1;entryDx=0;entryDy=0;shadow=1;fontSize=10;" edge="1" parent="1" source="QlWC5XBb-nRQeS2KVwKl-63" target="QlWC5XBb-nRQeS2KVwKl-55">
          <mxGeometry relative="1" as="geometry" />
        </mxCell>
        <mxCell id="QlWC5XBb-nRQeS2KVwKl-63" value="R3" style="shape=offPageConnector;whiteSpace=wrap;html=1;rounded=1;shadow=1;fontSize=10;size=0.4;" vertex="1" parent="1">
          <mxGeometry x="380" y="189" width="50" height="50" as="geometry" />
        </mxCell>
        <mxCell id="QlWC5XBb-nRQeS2KVwKl-82" style="edgeStyle=orthogonalEdgeStyle;rounded=0;orthogonalLoop=1;jettySize=auto;html=1;exitX=0.5;exitY=0;exitDx=0;exitDy=0;entryX=0.5;entryY=1;entryDx=0;entryDy=0;shadow=1;fontSize=27;" edge="1" parent="1" source="QlWC5XBb-nRQeS2KVwKl-73" target="QlWC5XBb-nRQeS2KVwKl-78">
          <mxGeometry relative="1" as="geometry" />
        </mxCell>
        <mxCell id="QlWC5XBb-nRQeS2KVwKl-73" value="Parking&lt;br&gt;Switch" style="rounded=1;whiteSpace=wrap;html=1;shadow=1;" vertex="1" parent="1">
          <mxGeometry x="52.5" y="1050" width="80" height="40" as="geometry" />
        </mxCell>
        <mxCell id="QlWC5XBb-nRQeS2KVwKl-83" style="edgeStyle=orthogonalEdgeStyle;rounded=0;orthogonalLoop=1;jettySize=auto;html=1;exitX=0.5;exitY=0;exitDx=0;exitDy=0;entryX=0.5;entryY=1;entryDx=0;entryDy=0;shadow=1;fontSize=27;" edge="1" parent="1" source="QlWC5XBb-nRQeS2KVwKl-74" target="QlWC5XBb-nRQeS2KVwKl-79">
          <mxGeometry relative="1" as="geometry" />
        </mxCell>
        <mxCell id="QlWC5XBb-nRQeS2KVwKl-74" value="Reverse&lt;br&gt;Switch" style="rounded=1;whiteSpace=wrap;html=1;shadow=1;" vertex="1" parent="1">
          <mxGeometry x="172.5" y="1050" width="80" height="40" as="geometry" />
        </mxCell>
        <mxCell id="QlWC5XBb-nRQeS2KVwKl-85" style="edgeStyle=orthogonalEdgeStyle;rounded=0;orthogonalLoop=1;jettySize=auto;html=1;exitX=0.5;exitY=0;exitDx=0;exitDy=0;entryX=0.5;entryY=1;entryDx=0;entryDy=0;shadow=1;fontSize=27;" edge="1" parent="1" source="QlWC5XBb-nRQeS2KVwKl-75" target="QlWC5XBb-nRQeS2KVwKl-81">
          <mxGeometry relative="1" as="geometry" />
        </mxCell>
        <mxCell id="QlWC5XBb-nRQeS2KVwKl-75" value="Charging&lt;br&gt;Switch" style="rounded=1;whiteSpace=wrap;html=1;shadow=1;" vertex="1" parent="1">
          <mxGeometry x="407.5" y="1050" width="80" height="40" as="geometry" />
        </mxCell>
        <mxCell id="QlWC5XBb-nRQeS2KVwKl-84" style="edgeStyle=orthogonalEdgeStyle;rounded=0;orthogonalLoop=1;jettySize=auto;html=1;exitX=0.5;exitY=0;exitDx=0;exitDy=0;entryX=0.5;entryY=1;entryDx=0;entryDy=0;shadow=1;fontSize=27;" edge="1" parent="1" source="QlWC5XBb-nRQeS2KVwKl-76" target="QlWC5XBb-nRQeS2KVwKl-80">
          <mxGeometry relative="1" as="geometry" />
        </mxCell>
        <mxCell id="QlWC5XBb-nRQeS2KVwKl-76" value="Ignition&lt;br&gt;Switch" style="rounded=1;whiteSpace=wrap;html=1;shadow=1;" vertex="1" parent="1">
          <mxGeometry x="291" y="1050" width="80" height="40" as="geometry" />
        </mxCell>
        <mxCell id="QlWC5XBb-nRQeS2KVwKl-110" style="edgeStyle=orthogonalEdgeStyle;rounded=0;orthogonalLoop=1;jettySize=auto;html=1;entryX=0.5;entryY=1;entryDx=0;entryDy=0;shadow=1;fontSize=12;elbow=vertical;" edge="1" parent="1" source="QlWC5XBb-nRQeS2KVwKl-78" target="QlWC5XBb-nRQeS2KVwKl-1">
          <mxGeometry relative="1" as="geometry">
            <Array as="points">
              <mxPoint x="92" y="820" />
              <mxPoint x="270" y="820" />
            </Array>
          </mxGeometry>
        </mxCell>
        <mxCell id="QlWC5XBb-nRQeS2KVwKl-78" value="&lt;font style=&quot;font-size: 10px&quot;&gt;&lt;b&gt;PKB&lt;br&gt;5V (D)&lt;br&gt;&lt;/b&gt;&lt;/font&gt;" style="rhombus;whiteSpace=wrap;html=1;shadow=1;rounded=1;fillColor=#f9f7ed;strokeColor=#36393d;" vertex="1" parent="1">
          <mxGeometry x="57.5" y="910" width="70" height="73" as="geometry" />
        </mxCell>
        <mxCell id="QlWC5XBb-nRQeS2KVwKl-111" style="edgeStyle=orthogonalEdgeStyle;rounded=0;orthogonalLoop=1;jettySize=auto;html=1;entryX=0.5;entryY=1;entryDx=0;entryDy=0;shadow=1;fontSize=12;elbow=vertical;" edge="1" parent="1" source="QlWC5XBb-nRQeS2KVwKl-79" target="QlWC5XBb-nRQeS2KVwKl-1">
          <mxGeometry relative="1" as="geometry">
            <Array as="points">
              <mxPoint x="212" y="820" />
              <mxPoint x="270" y="820" />
            </Array>
          </mxGeometry>
        </mxCell>
        <mxCell id="QlWC5XBb-nRQeS2KVwKl-79" value="&lt;font style=&quot;font-size: 10px&quot;&gt;&lt;b&gt;REV&lt;br&gt;5V (D)&lt;br&gt;&lt;/b&gt;&lt;/font&gt;" style="rhombus;whiteSpace=wrap;html=1;shadow=1;rounded=1;fillColor=#f9f7ed;strokeColor=#36393d;" vertex="1" parent="1">
          <mxGeometry x="177.5" y="910" width="70" height="73" as="geometry" />
        </mxCell>
        <mxCell id="QlWC5XBb-nRQeS2KVwKl-112" style="edgeStyle=orthogonalEdgeStyle;rounded=0;orthogonalLoop=1;jettySize=auto;html=1;exitX=0.5;exitY=0;exitDx=0;exitDy=0;entryX=0.5;entryY=1;entryDx=0;entryDy=0;shadow=1;fontSize=12;elbow=vertical;" edge="1" parent="1" source="QlWC5XBb-nRQeS2KVwKl-80" target="QlWC5XBb-nRQeS2KVwKl-1">
          <mxGeometry relative="1" as="geometry">
            <Array as="points">
              <mxPoint x="331" y="820" />
              <mxPoint x="270" y="820" />
            </Array>
          </mxGeometry>
        </mxCell>
        <mxCell id="QlWC5XBb-nRQeS2KVwKl-80" value="&lt;font style=&quot;font-size: 10px&quot;&gt;&lt;b&gt;IGNT&lt;br&gt;5V (D)&lt;br&gt;&lt;/b&gt;&lt;/font&gt;" style="rhombus;whiteSpace=wrap;html=1;shadow=1;rounded=1;fillColor=#f9f7ed;strokeColor=#36393d;" vertex="1" parent="1">
          <mxGeometry x="296" y="910" width="70" height="73" as="geometry" />
        </mxCell>
        <mxCell id="QlWC5XBb-nRQeS2KVwKl-113" style="edgeStyle=orthogonalEdgeStyle;rounded=0;orthogonalLoop=1;jettySize=auto;html=1;entryX=0.5;entryY=1;entryDx=0;entryDy=0;shadow=1;fontSize=12;elbow=vertical;" edge="1" parent="1" source="QlWC5XBb-nRQeS2KVwKl-81" target="QlWC5XBb-nRQeS2KVwKl-1">
          <mxGeometry relative="1" as="geometry">
            <Array as="points">
              <mxPoint x="448" y="820" />
              <mxPoint x="270" y="820" />
            </Array>
          </mxGeometry>
        </mxCell>
        <mxCell id="QlWC5XBb-nRQeS2KVwKl-81" value="&lt;font style=&quot;font-size: 10px&quot;&gt;&lt;b&gt;CHRG&lt;br&gt;5V (D)&lt;br&gt;&lt;/b&gt;&lt;/font&gt;" style="rhombus;whiteSpace=wrap;html=1;shadow=1;rounded=1;fillColor=#f9f7ed;strokeColor=#36393d;" vertex="1" parent="1">
          <mxGeometry x="412.5" y="910" width="70" height="73" as="geometry" />
        </mxCell>
        <mxCell id="QlWC5XBb-nRQeS2KVwKl-94" style="edgeStyle=orthogonalEdgeStyle;rounded=0;orthogonalLoop=1;jettySize=auto;html=1;exitX=1;exitY=0.5;exitDx=0;exitDy=0;shadow=1;fontSize=12;shape=link;width=-2.8571428571428577;" edge="1" parent="1" source="QlWC5XBb-nRQeS2KVwKl-90" target="QlWC5XBb-nRQeS2KVwKl-93">
          <mxGeometry relative="1" as="geometry" />
        </mxCell>
        <mxCell id="QlWC5XBb-nRQeS2KVwKl-95" style="edgeStyle=elbowEdgeStyle;shape=link;rounded=0;orthogonalLoop=1;jettySize=auto;html=1;entryX=0.5;entryY=0;entryDx=0;entryDy=0;shadow=1;fontSize=12;elbow=vertical;width=3;" edge="1" parent="1" source="QlWC5XBb-nRQeS2KVwKl-90" target="QlWC5XBb-nRQeS2KVwKl-12">
          <mxGeometry relative="1" as="geometry">
            <Array as="points">
              <mxPoint x="810" y="410" />
              <mxPoint x="783" y="537.62" />
            </Array>
          </mxGeometry>
        </mxCell>
        <mxCell id="QlWC5XBb-nRQeS2KVwKl-105" style="rounded=0;orthogonalLoop=1;jettySize=auto;elbow=vertical;html=1;exitX=0;exitY=0.5;exitDx=0;exitDy=0;entryX=1;entryY=0.25;entryDx=0;entryDy=0;shadow=1;fontSize=12;edgeStyle=orthogonalEdgeStyle;strokeWidth=2;" edge="1" parent="1" source="QlWC5XBb-nRQeS2KVwKl-90" target="QlWC5XBb-nRQeS2KVwKl-1">
          <mxGeometry relative="1" as="geometry" />
        </mxCell>
        <mxCell id="QlWC5XBb-nRQeS2KVwKl-90" value="&lt;font style=&quot;font-size: 10px&quot;&gt;&lt;b&gt;CAN (3x)&lt;br&gt;&lt;/b&gt;&lt;/font&gt;" style="rhombus;whiteSpace=wrap;html=1;shadow=1;rounded=1;fillColor=#f9f7ed;strokeColor=#36393d;" vertex="1" parent="1">
          <mxGeometry x="600" y="312.87" width="70" height="73" as="geometry" />
        </mxCell>
        <mxCell id="QlWC5XBb-nRQeS2KVwKl-93" value="Battery" style="rounded=0;whiteSpace=wrap;html=1;shadow=1;" vertex="1" parent="1">
          <mxGeometry x="840" y="314.62" width="150" height="70" as="geometry" />
        </mxCell>
        <mxCell id="QlWC5XBb-nRQeS2KVwKl-97" value="" style="whiteSpace=wrap;html=1;aspect=fixed;rounded=1;shadow=1;fontSize=12;strokeWidth=1;fillColor=#fad7ac;strokeColor=#b46504;" vertex="1" parent="1">
          <mxGeometry x="1142" y="892" width="210" height="210" as="geometry" />
        </mxCell>
        <mxCell id="QlWC5XBb-nRQeS2KVwKl-100" value="&lt;ol&gt;&lt;li&gt;&lt;b&gt;THR&lt;/b&gt;&lt;span style=&quot;white-space: pre&quot;&gt;	&lt;span style=&quot;white-space: pre&quot;&gt;	&lt;/span&gt;&lt;/span&gt;Throttle&lt;/li&gt;&lt;li&gt;&lt;b&gt;BRK&lt;/b&gt;&lt;span style=&quot;white-space: pre&quot;&gt;	&lt;/span&gt;Brake&lt;/li&gt;&lt;li&gt;&lt;b&gt;FWD&lt;/b&gt;&lt;span style=&quot;white-space: pre&quot;&gt;	&lt;/span&gt;Forward&lt;/li&gt;&lt;li&gt;&lt;b&gt;REV&lt;/b&gt;&lt;span style=&quot;white-space: pre&quot;&gt;	&lt;/span&gt;&lt;span style=&quot;white-space: pre&quot;&gt;	&lt;/span&gt;Reverse&lt;/li&gt;&lt;li&gt;&lt;b&gt;ACC&lt;/b&gt;&lt;span style=&quot;white-space: pre&quot;&gt;	&lt;/span&gt;Accelerometer&lt;/li&gt;&lt;li&gt;&lt;b&gt;GYR&lt;/b&gt;&lt;span style=&quot;white-space: pre&quot;&gt;	&lt;/span&gt;Gyroscope&lt;/li&gt;&lt;li&gt;&lt;b&gt;IGNT&lt;/b&gt;&lt;span style=&quot;white-space: pre&quot;&gt;	&lt;/span&gt;Ignition&lt;/li&gt;&lt;li&gt;&lt;b&gt;PKB&lt;/b&gt;&lt;span style=&quot;white-space: pre&quot;&gt;	&lt;/span&gt;Parking Brake&lt;/li&gt;&lt;li&gt;&lt;b&gt;CHRG&lt;/b&gt;&lt;span style=&quot;white-space: pre&quot;&gt;	&lt;/span&gt;Charging Switch&lt;/li&gt;&lt;li&gt;&lt;b&gt;R&lt;/b&gt;&lt;span style=&quot;white-space: pre&quot;&gt;&lt;b&gt;	&lt;/b&gt;&lt;/span&gt;&lt;span style=&quot;white-space: pre&quot;&gt;	&lt;/span&gt;Relays&lt;/li&gt;&lt;li&gt;&lt;b&gt;(D)&lt;/b&gt;&lt;span style=&quot;white-space: pre&quot;&gt;	&lt;/span&gt;&lt;span style=&quot;white-space: pre&quot;&gt;	&lt;/span&gt;Digital Signal&lt;/li&gt;&lt;li&gt;&lt;b&gt;(DP)&lt;/b&gt;&lt;span style=&quot;font-weight: bold ; white-space: pre&quot;&gt;	&lt;/span&gt;&lt;span style=&quot;font-weight: bold ; white-space: pre&quot;&gt;	&lt;/span&gt;Digital PWM Signal&lt;/li&gt;&lt;li&gt;&lt;b&gt;(A)&lt;/b&gt;&lt;span style=&quot;white-space: pre&quot;&gt;	&lt;/span&gt;&lt;span style=&quot;white-space: pre&quot;&gt;	&lt;/span&gt;Analog Signal&lt;/li&gt;&lt;/ol&gt;" style="text;html=1;strokeColor=none;fillColor=none;align=left;verticalAlign=middle;whiteSpace=wrap;rounded=0;shadow=1;dashed=1;fontSize=12;" vertex="1" parent="1">
          <mxGeometry x="1142" y="911.5" width="210" height="173.5" as="geometry" />
        </mxCell>
      </root>
    </mxGraphModel>
  </diagram>
</mxfile>
